<svg width="1000" height="1000" viewBox="0 0 1000 1000" fill="none" xmlns="http://www.w3.org/2000/svg">
<path d="M500 500H500.417M520.833 500C520.833 511.506 511.506 520.833 500 520.833C488.494 520.833 479.167 511.506 479.167 500C479.167 488.494 488.494 479.167 500 479.167C511.506 479.167 520.833 488.494 520.833 500ZM632.582 367.417C811.573 546.408 897.314 750.867 824.091 824.091C750.867 897.314 546.408 811.573 367.417 632.582C188.427 453.592 102.686 249.133 175.909 175.909C249.133 102.686 453.592 188.427 632.582 367.417ZM367.43 367.418C188.439 546.408 102.698 750.867 175.922 824.091C249.145 897.314 453.604 811.573 632.595 632.583C811.585 453.592 897.326 249.133 824.103 175.909C750.88 102.686 546.42 188.427 367.43 367.418Z" stroke="url(#paint0_linear_1_7)" stroke-width="100" stroke-linecap="round" stroke-linejoin="round"/>
<defs>
<linearGradient id="paint0_linear_1_7" x1="500.006" y1="149.747" x2="500.006" y2="850.253" gradientUnits="userSpaceOnUse">
<stop stop-color="#FFDB6E"/>
<stop offset="1" stop-color="#FFBE5F"/>
</linearGradient>
</defs>
</svg>
